<svg width="48" height="48" viewBox="0 0 48 48" fill="none" xmlns="http://www.w3.org/2000/svg">
<g clip-path="url(#clip0_14_80)">
<path d="M13.714 4.88994C16.24 6.73194 18.152 9.31994 19.78 11.6979L21.056 13.5739C21.4522 14.1531 21.6336 14.8525 21.5685 15.5512C21.5035 16.2499 21.1963 16.9039 20.7 17.3999L17.988 20.1119L18.274 20.7199C18.974 22.1379 20.182 24.1799 22 25.9999C23.4 27.3999 24.93 28.4359 26.208 29.1599L26.942 29.5539L27.596 29.8779L27.888 30.0119L30.598 27.2999C31.096 26.8026 31.7529 26.4959 32.454 26.4334C33.1551 26.3709 33.8558 26.5565 34.434 26.9579L36.462 28.3639C38.766 29.9839 41.172 31.8299 43.042 34.2259C43.3653 34.6418 43.5709 35.1368 43.6374 35.6592C43.7039 36.1817 43.6288 36.7124 43.42 37.1959C41.746 41.1019 37.51 44.4279 33.104 44.2639L32.504 44.2319L32.038 44.1919L31.522 44.1319L30.96 44.0559L30.35 43.9539L29.698 43.8259L29.006 43.6719L28.274 43.4839L27.504 43.2639L26.7 43.0039C23.008 41.7519 18.322 39.2919 13.514 34.4839C8.708 29.6779 6.248 24.9919 4.996 21.2999L4.736 20.4959L4.516 19.7259L4.328 18.9939L4.172 18.3019C4.12694 18.0852 4.08494 17.8679 4.046 17.6499L3.946 17.0399L3.866 16.4779L3.808 15.9619L3.768 15.4959L3.736 14.8959C3.574 10.5039 6.936 6.23794 10.824 4.57194C11.292 4.36988 11.8044 4.29294 12.3111 4.34869C12.8177 4.40444 13.3012 4.59096 13.714 4.88994ZM11.86 8.50594C9.716 9.62594 7.64 12.1859 7.734 14.7479L7.774 15.4039L7.818 15.8139L7.876 16.2739L7.956 16.7799L8.058 17.3339L8.188 17.9299L8.348 18.5699L8.54 19.2479L8.768 19.9639C8.852 20.2079 8.94 20.4579 9.036 20.7139L9.344 21.4979L9.696 22.3119C10.952 25.0759 13 28.3119 16.346 31.6559C19.69 34.9999 22.926 37.0499 25.69 38.3059L26.504 38.6579L27.288 38.9659C27.544 39.0619 27.794 39.1499 28.038 39.2339L28.754 39.4619L29.434 39.6539L30.072 39.8139L30.668 39.9439L31.222 40.0459L31.73 40.1259L32.19 40.1859L32.598 40.2259L33.254 40.2659C35.782 40.3599 38.362 38.2959 39.478 36.1799C38.054 34.5099 36.286 33.1399 34.336 31.7599L32.84 30.7179L32.46 31.1159L31.648 32.0019L31.218 32.4539C30.046 33.6479 28.678 34.6619 27.038 33.9999L26.586 33.8099L26.034 33.5619L25.726 33.4159L25.05 33.0779L24.308 32.6779C22.4303 31.633 20.7031 30.3378 19.174 28.8279C17.6642 27.2988 16.369 25.5717 15.324 23.6939L14.924 22.9539L14.584 22.2759L14.192 21.4159L14 20.9599C13.378 19.4219 14.234 18.1239 15.328 16.9999L15.776 16.5599L16.89 15.5339L17.29 15.1539L16.344 13.7679C14.938 11.7279 13.564 9.88794 11.858 8.50394L11.86 8.50594ZM29.986 12.0799L30.218 12.1059C31.6738 12.3627 33.011 13.0738 34.0378 14.1373C35.0646 15.2008 35.7284 16.562 35.934 18.0259C36.0073 18.5323 35.8838 19.0475 35.5888 19.4655C35.2938 19.8836 34.8498 20.1727 34.3482 20.2734C33.8466 20.3741 33.3254 20.2787 32.892 20.0068C32.4585 19.735 32.1458 19.3074 32.018 18.8119L31.972 18.5819C31.8915 18.0081 31.6466 17.4699 31.2669 17.0323C30.8871 16.5947 30.3887 16.2764 29.832 16.1159L29.522 16.0459C29.0198 15.9569 28.5706 15.6794 28.2662 15.2702C27.9618 14.8609 27.8253 14.3508 27.8846 13.8442C27.9439 13.3377 28.1944 12.8729 28.585 12.5449C28.9757 12.217 29.4768 12.0506 29.986 12.0799ZM30 5.99994C33.1826 5.99994 36.2348 7.26423 38.4853 9.51466C40.7357 11.7651 42 14.8173 42 17.9999C41.9994 18.5097 41.8042 19 41.4543 19.3707C41.1044 19.7414 40.6261 19.9644 40.1172 19.9943C39.6083 20.0242 39.1072 19.8586 38.7163 19.5314C38.3254 19.2042 38.0742 18.7401 38.014 18.2339L38 17.9999C38.0007 15.9688 37.2285 14.0135 35.84 12.531C34.4515 11.0485 32.5509 10.15 30.524 10.0179L30 9.99994C29.4696 9.99994 28.9609 9.78923 28.5858 9.41416C28.2107 9.03908 28 8.53038 28 7.99994C28 7.46951 28.2107 6.9608 28.5858 6.58573C28.9609 6.21066 29.4696 5.99994 30 5.99994Z" fill="white"/>
</g>
<defs>
<clipPath id="clip0_14_80">
<rect width="48" height="48" fill="white"/>
</clipPath>
</defs>
</svg>
