<svg width="48" height="48" viewBox="0 0 48 48" fill="none" xmlns="http://www.w3.org/2000/svg">
<path d="M24.0004 46.7344C19.9211 46.7344 15.9378 45.6479 12.4492 43.5877L4.15152 45.225C3.76837 45.3007 3.37227 45.1803 3.09599 44.9039C2.81971 44.6276 2.69934 44.2318 2.7749 43.8484L4.41224 35.5507C1.93387 31.3502 0.86615 26.3806 1.40249 21.5019C1.96434 16.39 4.28024 11.5683 7.92374 7.92497C12.218 3.63066 17.9272 1.26562 23.9998 1.26562C30.0725 1.26562 35.7815 3.63066 40.0752 7.92497C44.3694 12.2185 46.7344 17.9275 46.7344 24.0002C46.7344 30.0728 44.3693 35.782 40.0751 40.0763C35.7816 44.3698 30.0728 46.7344 24.0004 46.7344ZM12.6671 41.1784C12.8835 41.1784 13.0971 41.2383 13.2836 41.3537C16.4951 43.3404 20.2009 44.3906 24.0004 44.3906C29.4469 44.3906 34.567 42.2699 38.4178 38.419C42.2694 34.5674 44.3906 29.4467 44.3906 24.0002C44.3906 18.5537 42.2694 13.4332 38.4179 9.58219C34.5667 5.73047 29.4464 3.60938 23.9998 3.60938C18.5532 3.60938 13.4326 5.73056 9.58096 9.58219C2.8574 16.3057 1.65056 26.6412 6.64621 34.7164C6.80193 34.9681 6.85668 35.2693 6.7994 35.5597L5.41274 42.5872L12.4402 41.2005C12.5155 41.1857 12.5916 41.1784 12.6671 41.1784ZM30.4774 37.7194C28.3576 37.7194 26.3647 36.8939 24.8659 35.395L12.605 23.1342C9.51074 20.04 9.51074 15.0053 12.605 11.9111L13.3822 11.1338C13.932 10.5841 14.663 10.2813 15.4405 10.2813C16.218 10.2813 16.949 10.584 17.4988 11.1337L21.748 15.383C22.1507 15.7855 22.2056 16.4194 21.8783 16.8852C21.3407 17.6506 20.9856 18.454 20.8517 19.2087C20.7657 19.6926 20.7033 20.5856 21.2501 21.1325L26.8675 26.7499C27.244 27.1264 27.7866 27.2054 28.1755 27.2054C28.3706 27.2054 28.5777 27.1862 28.791 27.1483C29.546 27.0143 30.3493 26.6594 31.1147 26.1217C31.5804 25.7944 32.2143 25.8493 32.6169 26.252L36.8661 30.5012C38.001 31.6361 38.001 33.4828 36.8661 34.6177L36.0889 35.395C34.5901 36.8939 32.5972 37.7194 30.4774 37.7194ZM15.4405 12.625C15.3527 12.625 15.184 12.6466 15.0396 12.7911L14.2623 13.5684C13.206 14.6246 12.6244 16.029 12.6244 17.5227C12.6244 19.0164 13.206 20.4208 14.2623 21.477L26.5231 33.7378C27.5794 34.7941 28.9836 35.3757 30.4774 35.3757C31.9712 35.3757 33.3755 34.794 34.4317 33.7378L35.209 32.9605C35.4301 32.7395 35.4301 32.3797 35.209 32.1585L31.6193 28.5688C30.825 29.0109 30.0027 29.3137 29.2009 29.456C28.8529 29.5178 28.5078 29.5492 28.1755 29.5492C26.9826 29.5492 25.9573 29.1544 25.2102 28.4073L19.5928 22.7899C18.6303 21.8273 18.2578 20.41 18.5439 18.799C18.6863 17.9974 18.989 17.1751 19.4312 16.3808L15.8415 12.7912C15.6971 12.6465 15.5283 12.625 15.4405 12.625Z" fill="white"/>
</svg>
