<svg width="89" height="89" viewBox="0 0 89 89" fill="none" xmlns="http://www.w3.org/2000/svg">
<circle cx="44.5" cy="44.5" r="42" fill="#17202A" stroke="#737373" stroke-width="5"/>
<path d="M59.22 56.38C59.92 56.04 60.54 55.6 61.07 55.07C63.34 52.81 63.42 49.6 63.1 46.67C65.39 44.82 67.6 42.5 67.6 39.3C67.6 36.1 65.39 33.78 63.1 31.93C63.41 29 63.34 25.8 61.07 23.54C58.81 21.27 55.6 21.2 52.68 21.51C50.83 19.21 48.51 17 45.3 17C42.09 17 39.78 19.21 37.93 21.5C35.01 21.19 31.81 21.27 29.54 23.53C27.27 25.79 27.19 28.99 27.5 31.92C25.21 33.77 23 36.09 23 39.29C23 42.49 25.21 44.81 27.5 46.66C27.19 49.6 27.27 52.8 29.53 55.06C30.07 55.6 30.68 56.04 31.36 56.37L22 70.36L30.39 68.47L31.96 77L42.67 61.07C44.28 61.74 45.97 61.79 47.68 61.17L47.93 61.08L58.65 77L60.22 68.46L68.62 70.36L59.22 56.38ZM58.72 66.19L57.64 72.09L49.05 59.33L45.8 54.37L43.44 56.11L45.84 59.68C44.81 59.79 43.81 59.58 42.81 59.04L42.06 58.63L32.98 72.1L31.89 66.19L26.2 67.47L36.46 52.16L34.08 50.57L31.59 54.31C31.34 54.14 31.1 53.94 30.88 53.72C29.05 51.9 29.11 49.11 29.45 46.36L29.51 45.83L29.09 45.5C26.91 43.8 24.9 41.86 24.9 39.28C24.9 36.7 26.91 34.77 29.09 33.06L29.51 32.73L29.45 32.2C29.11 29.46 29.06 26.66 30.88 24.85C32.71 23.02 35.49 23.08 38.23 23.41L38.76 23.47L39.09 23.05C40.79 20.87 42.73 18.86 45.31 18.86C47.89 18.86 49.82 20.87 51.53 23.05L51.86 23.47L52.39 23.41C55.13 23.08 57.92 23.02 59.75 24.85C61.58 26.67 61.52 29.46 61.18 32.2L61.11 32.73L61.53 33.06C63.71 34.76 65.72 36.7 65.72 39.28C65.72 41.86 63.71 43.79 61.53 45.5L61.11 45.83L61.17 46.36C61.5 49.11 61.56 51.91 59.74 53.72C59.14 54.32 58.41 54.74 57.51 55.01L56.29 55.38L64.41 67.46L58.72 66.19Z" fill="#FFCD07"/>
<path d="M45.3 26.11C38.03 26.11 32.12 32.02 32.12 39.29C32.12 46.56 38.03 52.48 45.3 52.48C52.57 52.48 58.48 46.56 58.48 39.29C58.49 32.02 52.57 26.11 45.3 26.11ZM45.3 50.6C39.07 50.6 34.01 45.53 34.01 39.29C34.01 33.06 39.08 28 45.3 28C51.52 28 56.59 33.07 56.59 39.29C56.6 45.53 51.53 50.6 45.3 50.6Z" fill="#FFCD07"/>
<path d="M45.3 31.33C40.91 31.33 37.34 34.9 37.34 39.29C37.34 43.68 40.91 47.25 45.3 47.25C49.69 47.25 53.26 43.68 53.26 39.29C53.26 34.9 49.69 31.33 45.3 31.33ZM45.3 45.37C41.95 45.37 39.23 42.64 39.23 39.3C39.23 35.95 41.96 33.23 45.3 33.23C48.64 33.23 51.37 35.96 51.37 39.3C51.38 42.64 48.65 45.37 45.3 45.37Z" fill="#FFCD07"/>
<path d="M48.12 36.04L43.82 40.34L42.5 39.02C42.13 38.65 41.53 38.65 41.17 39.02C40.8 39.39 40.8 39.99 41.17 40.35L43.16 42.34C43.34 42.52 43.58 42.62 43.83 42.62C44.08 42.62 44.32 42.52 44.5 42.34L49.47 37.37C49.84 37 49.84 36.4 49.47 36.04C49.08 35.67 48.49 35.67 48.12 36.04Z" fill="#FFCD07"/>
</svg>
