<svg width="89" height="89" viewBox="0 0 89 89" fill="none" xmlns="http://www.w3.org/2000/svg">
<circle cx="44.5" cy="44.5" r="42" fill="#17202A" stroke="#737373" stroke-width="5"/>
<path d="M28.552 32.9597C29.88 32.9597 30.96 31.871 30.96 30.5323C30.96 29.1936 29.88 28.1049 28.552 28.1049C27.224 28.1049 26.144 29.1936 26.144 30.5323C26.136 31.8791 27.216 32.9597 28.552 32.9597Z" fill="#FFCD07"/>
<path d="M24.872 41.0404C25.04 41.2823 25.304 41.4194 25.584 41.4194C25.752 41.4194 25.92 41.371 26.064 41.2742C26.456 41.0081 26.56 40.4678 26.288 40.0726L25.208 38.4678L26.504 35.8146L27.904 35.5646L28.048 39.2258L27.224 43.1049L24.6 46.2742C24.296 46.6371 24.344 47.1855 24.712 47.492C24.872 47.6291 25.064 47.6936 25.256 47.6936C25.504 47.6936 25.744 47.5887 25.912 47.3871L28.808 43.8952L29.44 40.9355L31.68 42.9355L32.648 46.2258C32.784 46.6855 33.256 46.9355 33.712 46.8065C34.168 46.6694 34.424 46.1936 34.288 45.7339L33.176 41.9678L29.744 38.9033L29.6 35.2662L31.424 34.9355L32.584 37.2662C32.696 37.492 32.904 37.6613 33.152 37.7178C33.4 37.7742 33.656 37.7178 33.864 37.5646L36.088 35.8871C36.464 35.6049 36.544 35.0646 36.256 34.6775C35.976 34.2984 35.44 34.2178 35.056 34.5081L33.656 35.5646L32.672 33.5807C32.504 33.242 32.136 33.0484 31.76 33.121L25.776 34.2016C25.504 34.25 25.28 34.4194 25.16 34.6694L23.448 38.1613C23.312 38.4436 23.336 38.7742 23.504 39.0242L24.872 41.0404Z" fill="#FFCD07"/>
<path d="M66.816 32.4274H60.608L55.12 37.9596H49.96L44.544 43.4193H38.776L33.408 48.8306H27.44L21.632 54.6854C21.32 54.9999 21.112 55.4032 21.04 55.8387L21 60.3467C21 62.3628 22.624 63.9999 24.624 63.9999H65.376C67.376 63.9999 69 62.3628 69 60.3467V34.6209C69 33.4112 68.024 32.4274 66.816 32.4274ZM67.192 60.3467C67.192 61.3548 66.376 62.1774 65.384 62.1774H24.624C23.624 62.1774 22.816 61.3548 22.816 60.3467V56.7903L22.856 56.758L22.824 56.258C22.816 56.1774 22.832 56.0645 22.92 55.9758L28.2 50.6532H34.168L39.536 45.2419H45.304L50.72 39.7822H55.88L61.368 34.2499H66.824C67.024 34.2499 67.192 34.4193 67.192 34.6209V60.3467Z" fill="#FFCD07"/>
<path d="M57.4399 26.0806H61.7599V22H56.5439L59.2399 24.0403L57.4399 26.0806Z" fill="#FFCD07"/>
<path d="M65.8241 22H63.1281V31.8548H65.8241V22Z" fill="#FFCD07"/>
</svg>
