<svg width="89" height="89" viewBox="0 0 89 89" fill="none" xmlns="http://www.w3.org/2000/svg">
<circle cx="44.5" cy="44.5" r="42" fill="#17202A" stroke="#737373" stroke-width="5"/>
<path d="M52.668 40.84L49.238 40.34C49.128 40.33 49.028 40.25 48.978 40.15L47.448 37.05C47.018 36.18 46.148 35.63 45.168 35.63C44.188 35.63 43.318 36.17 42.888 37.05L41.358 40.15C41.308 40.26 41.198 40.33 41.078 40.35L37.648 40.85C36.688 41 35.898 41.66 35.608 42.59C35.308 43.51 35.558 44.51 36.258 45.19L38.728 47.58C38.818 47.67 38.858 47.79 38.838 47.91L38.258 51.31C38.088 52.27 38.468 53.22 39.258 53.8C40.048 54.38 41.078 54.45 41.948 54L45.008 52.39C45.118 52.33 45.238 52.33 45.348 52.39L48.408 54.01C48.788 54.21 49.188 54.3 49.588 54.3C50.118 54.3 50.638 54.13 51.088 53.81C51.878 53.23 52.258 52.28 52.088 51.33L51.508 47.92C51.488 47.8 51.528 47.68 51.608 47.61L54.088 45.2C54.788 44.52 55.028 43.53 54.738 42.6C54.418 41.65 53.638 40.99 52.668 40.84ZM52.548 43.62L50.058 46.04C49.468 46.63 49.198 47.47 49.338 48.28L49.918 51.7C49.948 51.89 49.848 52 49.778 52.04C49.708 52.09 49.568 52.16 49.398 52.07L46.338 50.45C45.968 50.26 45.558 50.16 45.158 50.16C44.748 50.16 44.348 50.26 43.968 50.45L40.908 52.06C40.738 52.15 40.598 52.08 40.528 52.03C40.458 51.98 40.358 51.87 40.388 51.68L40.968 48.28C41.108 47.46 40.848 46.62 40.238 46.02L37.758 43.62C37.628 43.49 37.638 43.35 37.668 43.25C37.698 43.17 37.768 43.03 37.958 43L41.358 42.51C42.188 42.4 42.908 41.88 43.288 41.12L44.818 38.02C44.898 37.85 45.048 37.82 45.138 37.82C45.228 37.82 45.368 37.85 45.458 38.02L46.988 41.13C47.368 41.89 48.088 42.4 48.908 42.51L52.348 43C52.548 43.03 52.618 43.17 52.648 43.25C52.678 43.35 52.678 43.49 52.548 43.62Z" fill="#FFCD07"/>
<path d="M68.598 31.3C68.008 30.61 67.158 30.22 66.258 30.22H24.198C22.628 30.22 21.278 31.33 21.038 32.8C20.898 33.71 21.148 34.62 21.738 35.31C22.328 36 23.178 36.39 24.078 36.39H24.428V40.1C24.428 49.04 30.128 56.95 38.598 59.77C40.018 60.24 40.968 61.57 41.048 63.04H37.848C36.748 63.04 35.848 63.94 35.848 65.04V66.96H34.668C33.568 66.96 32.668 67.86 32.668 68.96V76H57.638V68.94C57.638 67.84 56.748 66.95 55.648 66.95H54.458V65.03C54.458 63.93 53.558 63.03 52.458 63.03H49.258C49.338 61.56 50.288 60.24 51.698 59.76C60.178 56.94 65.878 49.04 65.878 40.09V36.4H66.118C67.688 36.4 69.038 35.29 69.278 33.82C69.448 32.91 69.188 31.99 68.598 31.3ZM67.148 33.47C67.078 33.89 66.638 34.22 66.138 34.22H65.718C64.618 34.22 63.718 35.11 63.718 36.21V40.11C63.718 48.11 58.618 55.18 51.028 57.71C48.308 58.62 46.658 61.47 47.188 64.34L47.358 65.23H52.288V69.14H55.468V73.83H34.868V69.14H38.048V65.23H42.978L43.148 64.34C43.688 61.48 42.038 58.63 39.308 57.71C31.718 55.19 26.628 48.12 26.628 40.11V36.21C26.628 35.11 25.728 34.22 24.628 34.22H24.088C23.828 34.22 23.578 34.1 23.408 33.9C23.308 33.78 23.138 33.52 23.198 33.15C23.268 32.73 23.708 32.4 24.208 32.4H66.268C66.528 32.4 66.778 32.52 66.948 32.72C67.048 32.83 67.208 33.09 67.148 33.47Z" fill="#FFCD07"/>
<path d="M36.868 28.49C37.368 28.99 38.048 29.27 38.758 29.27C39.468 29.27 40.148 28.99 40.648 28.49C41.148 27.99 41.428 27.31 41.428 26.6C41.428 25.89 41.148 25.21 40.648 24.71L33.928 17.99C32.918 16.98 31.158 16.98 30.148 17.99C29.648 18.49 29.368 19.17 29.368 19.88C29.368 20.59 29.648 21.27 30.148 21.77L36.868 28.49ZM31.698 19.53C31.828 19.4 31.968 19.39 32.048 19.39C32.128 19.39 32.268 19.41 32.398 19.53L39.118 26.25C39.248 26.37 39.258 26.52 39.258 26.6C39.258 26.68 39.238 26.82 39.118 26.95C38.998 27.08 38.848 27.09 38.768 27.09C38.688 27.09 38.548 27.07 38.418 26.95L31.698 20.23C31.568 20.1 31.558 19.96 31.558 19.88C31.548 19.8 31.568 19.66 31.698 19.53Z" fill="#FFCD07"/>
<path d="M51.578 29.27C52.288 29.27 52.958 28.99 53.468 28.49L60.188 21.77C60.688 21.27 60.968 20.59 60.968 19.88C60.968 19.17 60.688 18.49 60.188 17.99C59.178 16.98 57.418 16.98 56.408 17.99L49.688 24.71C49.188 25.21 48.908 25.89 48.908 26.6C48.908 27.31 49.188 27.99 49.688 28.49C50.188 29 50.858 29.27 51.578 29.27ZM51.228 26.25L57.948 19.53C58.078 19.4 58.218 19.39 58.298 19.39C58.378 19.39 58.518 19.41 58.648 19.53C58.778 19.65 58.788 19.8 58.788 19.88C58.788 19.96 58.768 20.1 58.648 20.23L51.928 26.95C51.798 27.08 51.658 27.09 51.578 27.09C51.498 27.09 51.358 27.07 51.228 26.95C51.098 26.83 51.088 26.68 51.088 26.6C51.078 26.52 51.098 26.38 51.228 26.25Z" fill="#FFCD07"/>
<path d="M45.168 29.37C46.638 29.37 47.838 28.17 47.838 26.7V18.67C47.838 17.2 46.638 16 45.168 16C43.698 16 42.498 17.2 42.498 18.67V26.69C42.498 28.17 43.698 29.37 45.168 29.37ZM44.678 18.67C44.678 18.4 44.898 18.18 45.168 18.18C45.438 18.18 45.658 18.4 45.658 18.67V26.69C45.658 26.96 45.438 27.18 45.168 27.18C44.898 27.18 44.678 26.96 44.678 26.69V18.67Z" fill="#FFCD07"/>
</svg>
