<svg width="89" height="89" viewBox="0 0 89 89" fill="none" xmlns="http://www.w3.org/2000/svg">
<circle cx="44.5" cy="44.5" r="42" fill="#17202A" stroke="#737373" stroke-width="5"/>
<path d="M66.5848 42.5707L26.9751 49.2878C25.687 49.4478 24.3989 48.6481 24.0768 47.2087L21.0176 29.6161C20.8565 28.3367 21.8226 27.0572 23.1108 26.7373L62.7204 20.0202C64.0085 19.8602 65.2967 20.6599 65.6187 22.0993L68.678 39.6919C68.839 40.9713 68.0339 42.2508 66.5848 42.5707Z" stroke="#FFCD07" stroke-miterlimit="10" stroke-linecap="round" stroke-linejoin="round"/>
<path d="M41.9495 33.7744C42.2715 34.5741 43.0766 35.0539 43.8817 34.8939L44.8478 34.734" stroke="#FFCD07" stroke-miterlimit="10" stroke-linecap="round" stroke-linejoin="round"/>
<path d="M47.907 36.1733C47.907 36.0134 47.907 36.0134 47.907 36.1733ZM47.907 36.1733C47.746 35.0538 46.7799 34.4141 45.8138 34.574H45.0088" stroke="#FFCD07" stroke-miterlimit="10" stroke-linecap="round" stroke-linejoin="round"/>
<path d="M41.9495 33.7744C41.9495 33.6145 41.7885 33.4546 41.7885 33.2946C41.7885 32.335 42.4325 31.3754 43.3986 31.2155L44.6867 31.0556H44.8477L46.9409 30.7357" stroke="#FFCD07" stroke-miterlimit="10" stroke-linecap="round" stroke-linejoin="round"/>
<path d="M42.7545 38.7322L45.8138 38.2524H46.2969C47.263 38.0925 47.907 37.2928 47.746 36.3333" stroke="#FFCD07" stroke-miterlimit="10" stroke-linecap="round" stroke-linejoin="round"/>
<path d="M44.3647 28.9764L44.6867 31.0556" stroke="#FFCD07" stroke-miterlimit="10" stroke-linecap="round" stroke-linejoin="round"/>
<path d="M45.9749 38.2526L46.2969 40.1718" stroke="#FFCD07" stroke-miterlimit="10" stroke-linecap="round" stroke-linejoin="round"/>
<path d="M52.8985 33.2946C53.2205 35.2138 52.7375 37.2929 51.7714 38.8923C51.4494 39.3721 51.1273 39.8518 50.6443 40.3316C49.5172 41.4512 47.9071 42.4108 46.1359 42.7306C44.3647 43.0505 42.5936 42.7306 41.1444 41.931C40.6614 41.6111 40.1783 41.2912 39.6953 40.9714C38.2462 39.8519 37.119 38.0926 36.797 36.0135C35.9919 31.6953 39.0512 27.537 43.3986 26.7374C47.907 25.9377 52.0934 28.9764 52.8985 33.2946Z" stroke="#FFCD07" stroke-miterlimit="10" stroke-linecap="round" stroke-linejoin="round"/>
<path d="M60.1442 34.4142C61.4781 34.4142 62.5594 33.3401 62.5594 32.0152C62.5594 30.6903 61.4781 29.6162 60.1442 29.6162C58.8103 29.6162 57.729 30.6903 57.729 32.0152C57.729 33.3401 58.8103 34.4142 60.1442 34.4142Z" stroke="#FFCD07" stroke-miterlimit="10" stroke-linecap="round" stroke-linejoin="round"/>
<path d="M29.5514 39.6919C30.8853 39.6919 31.9666 38.6178 31.9666 37.2929C31.9666 35.968 30.8853 34.8939 29.5514 34.8939C28.2175 34.8939 27.1361 35.968 27.1361 37.2929C27.1361 38.6178 28.2175 39.6919 29.5514 39.6919Z" stroke="#FFCD07" stroke-miterlimit="10" stroke-linecap="round" stroke-linejoin="round"/>
<path d="M69 58.564C69 63.8417 64.8136 68 59.5001 68C57.4069 68 55.4747 67.3603 53.8646 66.2407C52.8985 65.601 52.0934 64.8013 51.4493 63.8417C51.2883 63.5219 51.1273 63.202 50.9663 62.8821C50.3222 61.6027 50.0002 60.1633 50.0002 58.7239C50.0002 58.404 50.0002 58.0842 50.0002 57.7643C50.1612 55.8451 50.9663 54.0859 52.2544 52.6465C52.2544 52.6465 52.2544 52.6465 52.4154 52.4865C53.5425 51.2071 54.8307 50.4074 56.4408 49.7677C57.4069 49.4478 58.534 49.2879 59.5001 49.2879C64.6526 49.1279 69 53.4461 69 58.564Z" stroke="#FFCD07" stroke-miterlimit="10" stroke-linecap="round" stroke-linejoin="round"/>
<path d="M62.0763 55.2053H59.9831H58.695C57.7289 55.2053 56.9239 56.005 56.9239 56.9646C56.9239 57.9242 57.7289 58.7238 58.695 58.7238H60.3052" stroke="#FFCD07" stroke-miterlimit="10" stroke-linecap="round" stroke-linejoin="round"/>
<path d="M60.3052 58.5638C61.2713 58.5638 62.0763 59.3635 62.0763 60.3231C62.0763 61.2827 61.2713 62.0824 60.3052 62.0824H56.9239" stroke="#FFCD07" stroke-miterlimit="10" stroke-linecap="round" stroke-linejoin="round"/>
<path d="M59.9832 53.1262V55.2053" stroke="#FFCD07" stroke-miterlimit="10" stroke-linecap="round" stroke-linejoin="round"/>
<path d="M59.9832 62.0824V64.0016" stroke="#FFCD07" stroke-miterlimit="10" stroke-linecap="round" stroke-linejoin="round"/>
<path d="M38.0851 67.9999H24.3989C23.2717 67.9999 22.4667 67.2002 22.4667 66.0807V65.1211C22.4667 64.1615 23.2717 63.2019 24.3989 63.2019H38.0851C39.0512 63.2019 40.0173 64.0016 40.0173 65.1211V66.0807C40.0173 67.2002 39.2122 67.9999 38.0851 67.9999Z" stroke="#FFCD07" stroke-miterlimit="10" stroke-linecap="round" stroke-linejoin="round"/>
<path d="M45.0088 63.3619H31.1615C30.1954 63.3619 29.2293 62.5623 29.2293 61.4428V60.4832C29.2293 59.5236 30.0344 58.564 31.1615 58.564H45.0088C45.9749 58.564 46.9409 59.3636 46.9409 60.4832V61.4428C46.7799 62.5623 45.9749 63.3619 45.0088 63.3619Z" stroke="#FFCD07" stroke-miterlimit="10" stroke-linecap="round" stroke-linejoin="round"/>
<path d="M36.958 58.7239H23.1107C22.1446 58.7239 21.1786 57.9242 21.1786 56.8047V55.8451C21.1786 54.8855 21.9836 53.9259 23.1107 53.9259H36.958C37.9241 53.9259 38.8902 54.7256 38.8902 55.8451V56.8047C38.7292 57.9242 37.9241 58.7239 36.958 58.7239Z" stroke="#FFCD07" stroke-miterlimit="10" stroke-linecap="round" stroke-linejoin="round"/>
</svg>
