<svg width="89" height="89" viewBox="0 0 89 89" fill="none" xmlns="http://www.w3.org/2000/svg">
<circle cx="44.5" cy="44.5" r="42" fill="#17202A" stroke="#737373" stroke-width="5"/>
<path d="M66.4582 21.2C66.2485 21.16 66.0388 21.136 65.8123 21.136H56.3834V19.008C56.3834 18.456 55.9053 18 55.3181 18C54.7309 18 54.2611 18.456 54.2611 19.008V21.136H35.7389V19.008C35.7389 18.448 35.2607 18 34.6819 18C34.0947 18 33.625 18.456 33.625 19.008V21.136H24.1877C23.7515 21.136 23.3321 21.224 22.9462 21.376C21.8053 21.84 21 22.92 21 24.176V59.4C21 61.072 22.4261 62.432 24.1793 62.432H34.7071C37.5005 64.656 41.0825 66 45 66C48.9091 66 52.4995 64.656 55.2929 62.432H65.8207C67.5739 62.432 69 61.072 69 59.4V24.176C69 22.712 67.9011 21.48 66.4582 21.2ZM23.1223 24.176C23.1223 23.76 23.3908 23.4 23.7683 23.248C23.8941 23.2 24.0367 23.168 24.1793 23.168H33.6082V25.936C33.6082 26.496 34.0863 26.944 34.6652 26.944C35.2524 26.944 35.7221 26.488 35.7221 25.936V23.16H54.2443V25.928C54.2443 26.488 54.7225 26.936 55.3013 26.936C55.8801 26.936 56.3583 26.48 56.3583 25.928V23.16H65.7955C66.3743 23.16 66.8525 23.616 66.8525 24.168V34.104C66.8525 34.664 66.3743 35.112 65.7955 35.112H24.1877C23.6005 35.112 23.1307 34.656 23.1307 34.104V24.176H23.1223ZM23.1223 59.4V36.952C23.4579 37.064 23.8102 37.136 24.1877 37.136H37.4837C32.4002 39.712 28.9357 44.808 28.9357 50.672C28.9357 54.368 30.3114 57.76 32.6015 60.408H24.1793C23.6005 60.408 23.1223 59.96 23.1223 59.4ZM45 63.976C37.3076 63.976 31.0496 58.008 31.0496 50.672C31.0496 43.336 37.3076 37.368 45 37.368C52.6924 37.368 58.9504 43.336 58.9504 50.672C58.9504 58.008 52.6924 63.976 45 63.976ZM65.8207 60.408H57.3985C59.6886 57.76 61.0643 54.368 61.0643 50.672C61.0643 44.808 57.5914 39.712 52.5079 37.136H65.8039C66.1814 37.136 66.5337 37.064 66.8693 36.952V59.4C66.8777 59.96 66.3995 60.408 65.8207 60.408Z" fill="#FFCD07"/>
<path d="M52.0549 45.112L41.6362 55.04L37.9368 51.512C37.5005 51.096 36.7875 51.096 36.3429 51.512C35.9067 51.928 35.9067 52.608 36.3429 53.032L40.8308 57.32C41.0406 57.52 41.3258 57.632 41.6278 57.632C41.9298 57.632 42.215 57.52 42.4247 57.32L53.6404 46.624C54.0766 46.208 54.0766 45.528 53.6404 45.104C53.2041 44.688 52.4911 44.688 52.0549 45.112Z" fill="#FFCD07"/>
</svg>
