<svg width="48" height="48" viewBox="0 0 48 48" fill="none" xmlns="http://www.w3.org/2000/svg">
<g clip-path="url(#clip0_14_84)">
<path d="M40.5 7.06395C40.8561 6.97186 41.2307 6.97975 41.5826 7.08675C41.9345 7.19376 42.2501 7.39573 42.4947 7.67047C42.7392 7.94521 42.9033 8.28206 42.9688 8.64399C43.0343 9.00593 42.9987 9.37892 42.866 9.72195L30.866 40.7219C30.7473 41.029 30.5547 41.302 30.3052 41.5167C30.0557 41.7314 29.757 41.8812 29.4357 41.9529C29.1144 42.0245 28.7804 42.0157 28.4633 41.9273C28.1462 41.8388 27.8559 41.6735 27.618 41.4459L20.854 34.9759L18.448 37.3799C17.176 38.6519 15 37.7519 15 35.9519V29.3759L4.61802 19.4459C4.36043 19.1995 4.17339 18.8887 4.07626 18.5457C3.97914 18.2027 3.97547 17.8399 4.06562 17.495C4.15577 17.1501 4.33648 16.8356 4.58902 16.584C4.84157 16.3324 5.15678 16.1528 5.50202 16.0639L40.5 7.06395ZM36.272 15.6739L20.276 28.8879L28.216 36.4839L36.272 15.6739ZM33.116 13.0939L9.98202 19.0399L17.366 26.0999L33.116 13.0899V13.0939Z" fill="white"/>
</g>
<defs>
<clipPath id="clip0_14_84">
<rect width="48" height="48" fill="white"/>
</clipPath>
</defs>
</svg>
